<svg xmlns="http://www.w3.org/2000/svg" xmlns:xlink="http://www.w3.org/1999/xlink" width="1920" zoomAndPan="magnify" viewBox="0 0 1440 809.999993" height="1080" preserveAspectRatio="xMidYMid meet" version="1.0"><defs><g/><clipPath id="2754e99457"><path d="M 468 348 L 536.25 348 L 536.25 461 L 468 461 Z M 468 348 " clip-rule="nonzero"/></clipPath><clipPath id="3e26ad417a"><path d="M 380 320.488281 L 457 320.488281 L 457 489 L 380 489 Z M 380 320.488281 " clip-rule="nonzero"/></clipPath></defs><g clip-path="url(#2754e99457)"><path fill="#6a56ed" d="M 485.773438 460.878906 L 468.929688 446.839844 L 507.113281 404.722656 L 468.929688 362.605469 L 485.773438 348.566406 L 536.316406 404.722656 Z M 485.773438 460.878906 " fill-opacity="1" fill-rule="nonzero"/></g><path fill="#6a56ed" d="M 356.617188 460.878906 L 306.074219 404.722656 L 356.617188 348.566406 L 373.460938 362.605469 L 334.714844 404.722656 L 373.460938 446.839844 Z M 356.617188 460.878906 " fill-opacity="1" fill-rule="nonzero"/><g clip-path="url(#3e26ad417a)"><path fill="#fab723" d="M 401.539062 488.957031 L 380.203125 481.660156 L 435.234375 320.488281 L 456.574219 327.789062 Z M 401.539062 488.957031 " fill-opacity="1" fill-rule="nonzero"/></g><g fill="#6a56ed" fill-opacity="1"><g transform="translate(581.847633, 457.229997)"><g><path d="M 4.203125 -42 C 4.203125 -50.601562 5.828125 -58.15625 9.078125 -64.65625 C 12.328125 -71.15625 16.75 -76.15625 22.34375 -79.65625 C 27.945312 -83.15625 34.195312 -84.90625 41.09375 -84.90625 C 46.59375 -84.90625 51.617188 -83.753906 56.171875 -81.453125 C 60.722656 -79.148438 64.300781 -76.050781 66.90625 -72.15625 L 66.90625 -111 L 92.546875 -111 L 92.546875 0 L 66.90625 0 L 66.90625 -12 C 64.5 -8 61.070312 -4.796875 56.625 -2.390625 C 52.175781 0.00390625 47 1.203125 41.09375 1.203125 C 34.195312 1.203125 27.945312 -0.570312 22.34375 -4.125 C 16.75 -7.675781 12.328125 -12.722656 9.078125 -19.265625 C 5.828125 -25.816406 4.203125 -33.394531 4.203125 -42 Z M 66.90625 -41.84375 C 66.90625 -48.25 65.128906 -53.300781 61.578125 -57 C 58.023438 -60.695312 53.695312 -62.546875 48.59375 -62.546875 C 43.5 -62.546875 39.175781 -60.71875 35.625 -57.0625 C 32.070312 -53.414062 30.296875 -48.394531 30.296875 -42 C 30.296875 -35.601562 32.070312 -30.53125 35.625 -26.78125 C 39.175781 -23.03125 43.5 -21.15625 48.59375 -21.15625 C 53.695312 -21.15625 58.023438 -23.003906 61.578125 -26.703125 C 65.128906 -30.398438 66.90625 -35.445312 66.90625 -41.84375 Z M 66.90625 -41.84375 "/></g></g></g><g fill="#6a56ed" fill-opacity="1"><g transform="translate(683.697654, 457.229997)"><g><path d="M 88.203125 -43.203125 C 88.203125 -40.796875 88.050781 -38.296875 87.75 -35.703125 L 29.703125 -35.703125 C 30.097656 -30.503906 31.769531 -26.53125 34.71875 -23.78125 C 37.675781 -21.03125 41.300781 -19.65625 45.59375 -19.65625 C 52 -19.65625 56.453125 -22.351562 58.953125 -27.75 L 86.25 -27.75 C 84.851562 -22.25 82.328125 -17.296875 78.671875 -12.890625 C 75.023438 -8.492188 70.453125 -5.046875 64.953125 -2.546875 C 59.453125 -0.046875 53.300781 1.203125 46.5 1.203125 C 38.300781 1.203125 31 -0.546875 24.59375 -4.046875 C 18.195312 -7.546875 13.195312 -12.546875 9.59375 -19.046875 C 6 -25.546875 4.203125 -33.144531 4.203125 -41.84375 C 4.203125 -50.550781 5.972656 -58.15625 9.515625 -64.65625 C 13.066406 -71.15625 18.039062 -76.15625 24.4375 -79.65625 C 30.84375 -83.15625 38.195312 -84.90625 46.5 -84.90625 C 54.601562 -84.90625 61.800781 -83.203125 68.09375 -79.796875 C 74.394531 -76.398438 79.320312 -71.550781 82.875 -65.25 C 86.425781 -58.945312 88.203125 -51.597656 88.203125 -43.203125 Z M 61.953125 -49.953125 C 61.953125 -54.347656 60.453125 -57.84375 57.453125 -60.4375 C 54.453125 -63.039062 50.703125 -64.34375 46.203125 -64.34375 C 41.898438 -64.34375 38.273438 -63.09375 35.328125 -60.59375 C 32.378906 -58.09375 30.550781 -54.546875 29.84375 -49.953125 Z M 61.953125 -49.953125 "/></g></g></g><g fill="#6a56ed" fill-opacity="1"><g transform="translate(776.097669, 457.229997)"><g><path d="M 46.953125 -24 L 65.09375 -83.703125 L 92.40625 -83.703125 L 62.703125 0 L 31.046875 0 L 1.34375 -83.703125 L 28.796875 -83.703125 Z M 46.953125 -24 "/></g></g></g><g fill="#fab723" fill-opacity="1"><g transform="translate(869.999962, 457.229997)"><g><path d="M 25.203125 -68.84375 C 27.597656 -73.550781 31.019531 -77.203125 35.46875 -79.796875 C 39.925781 -82.398438 45.351562 -83.703125 51.75 -83.703125 L 51.75 -69.59375 L 48.15625 -69.59375 C 32.851562 -69.59375 25.203125 -61.296875 25.203125 -44.703125 L 25.203125 0 L 11.546875 0 L 11.546875 -82.203125 L 25.203125 -82.203125 Z M 25.203125 -68.84375 "/></g></g></g><g fill="#fab723" fill-opacity="1"><g transform="translate(925.949975, 457.229997)"><g><path d="M 18.59375 -95.546875 C 16 -95.546875 13.800781 -96.445312 12 -98.25 C 10.195312 -100.050781 9.296875 -102.25 9.296875 -104.84375 C 9.296875 -107.445312 10.195312 -109.648438 12 -111.453125 C 13.800781 -113.253906 16 -114.15625 18.59375 -114.15625 C 21.09375 -114.15625 23.21875 -113.253906 24.96875 -111.453125 C 26.71875 -109.648438 27.59375 -107.445312 27.59375 -104.84375 C 27.59375 -102.25 26.71875 -100.050781 24.96875 -98.25 C 23.21875 -96.445312 21.09375 -95.546875 18.59375 -95.546875 Z M 25.203125 -82.203125 L 25.203125 0 L 11.546875 0 L 11.546875 -82.203125 Z M 25.203125 -82.203125 "/></g></g></g><g fill="#fab723" fill-opacity="1"><g transform="translate(962.849983, 457.229997)"><g><path d="M 40.65625 1.34375 C 34.351562 1.34375 28.703125 0.269531 23.703125 -1.875 C 18.703125 -4.019531 14.75 -7.019531 11.84375 -10.875 C 8.945312 -14.726562 7.347656 -19.15625 7.046875 -24.15625 L 21.15625 -24.15625 C 21.550781 -20.050781 23.472656 -16.695312 26.921875 -14.09375 C 30.367188 -11.5 34.894531 -10.203125 40.5 -10.203125 C 45.695312 -10.203125 49.796875 -11.347656 52.796875 -13.640625 C 55.796875 -15.941406 57.296875 -18.84375 57.296875 -22.34375 C 57.296875 -25.945312 55.695312 -28.625 52.5 -30.375 C 49.300781 -32.125 44.351562 -33.847656 37.65625 -35.546875 C 31.550781 -37.148438 26.570312 -38.773438 22.71875 -40.421875 C 18.875 -42.078125 15.578125 -44.53125 12.828125 -47.78125 C 10.078125 -51.03125 8.703125 -55.300781 8.703125 -60.59375 C 8.703125 -64.800781 9.953125 -68.65625 12.453125 -72.15625 C 14.953125 -75.65625 18.5 -78.425781 23.09375 -80.46875 C 27.695312 -82.519531 32.945312 -83.546875 38.84375 -83.546875 C 47.945312 -83.546875 55.296875 -81.242188 60.890625 -76.640625 C 66.492188 -72.046875 69.5 -65.75 69.90625 -57.75 L 56.25 -57.75 C 55.945312 -62.050781 54.21875 -65.5 51.0625 -68.09375 C 47.914062 -70.695312 43.695312 -72 38.40625 -72 C 33.5 -72 29.59375 -70.945312 26.6875 -68.84375 C 23.789062 -66.75 22.34375 -64 22.34375 -60.59375 C 22.34375 -57.894531 23.21875 -55.671875 24.96875 -53.921875 C 26.71875 -52.171875 28.914062 -50.769531 31.5625 -49.71875 C 34.21875 -48.675781 37.894531 -47.503906 42.59375 -46.203125 C 48.5 -44.597656 53.300781 -43.019531 57 -41.46875 C 60.695312 -39.925781 63.867188 -37.601562 66.515625 -34.5 C 69.171875 -31.394531 70.550781 -27.34375 70.65625 -22.34375 C 70.65625 -17.84375 69.40625 -13.789062 66.90625 -10.1875 C 64.40625 -6.59375 60.878906 -3.769531 56.328125 -1.71875 C 51.773438 0.320312 46.550781 1.34375 40.65625 1.34375 Z M 40.65625 1.34375 "/></g></g></g><g fill="#fab723" fill-opacity="1"><g transform="translate(1041.149997, 457.229997)"><g><path d="M 86.546875 -44.25 C 86.546875 -41.644531 86.394531 -38.894531 86.09375 -36 L 20.40625 -36 C 20.90625 -27.894531 23.675781 -21.566406 28.71875 -17.015625 C 33.769531 -12.472656 39.894531 -10.203125 47.09375 -10.203125 C 53 -10.203125 57.925781 -11.578125 61.875 -14.328125 C 65.820312 -17.078125 68.597656 -20.75 70.203125 -25.34375 L 84.90625 -25.34375 C 82.695312 -17.445312 78.289062 -11.023438 71.6875 -6.078125 C 65.09375 -1.128906 56.894531 1.34375 47.09375 1.34375 C 39.300781 1.34375 32.328125 -0.40625 26.171875 -3.90625 C 20.023438 -7.40625 15.203125 -12.378906 11.703125 -18.828125 C 8.203125 -25.273438 6.453125 -32.75 6.453125 -41.25 C 6.453125 -49.75 8.148438 -57.195312 11.546875 -63.59375 C 14.953125 -70 19.726562 -74.925781 25.875 -78.375 C 32.019531 -81.820312 39.09375 -83.546875 47.09375 -83.546875 C 54.894531 -83.546875 61.796875 -81.84375 67.796875 -78.4375 C 73.796875 -75.039062 78.421875 -70.367188 81.671875 -64.421875 C 84.921875 -58.472656 86.546875 -51.75 86.546875 -44.25 Z M 72.453125 -47.09375 C 72.453125 -52.300781 71.300781 -56.78125 69 -60.53125 C 66.695312 -64.28125 63.570312 -67.128906 59.625 -69.078125 C 55.675781 -71.023438 51.300781 -72 46.5 -72 C 39.601562 -72 33.726562 -69.796875 28.875 -65.390625 C 24.019531 -60.992188 21.242188 -54.894531 20.546875 -47.09375 Z M 72.453125 -47.09375 "/></g></g></g></svg>